<svg xmlns="http://www.w3.org/2000/svg" version="1.1" xmlns:xlink="http://www.w3.org/1999/xlink" width="1000" height="366" viewBox="0 0 1000 366"><g transform="matrix(1,0,0,1,-0.6060606060606233,-0.24910985613831826)"><svg viewBox="0 0 396 145" data-background-color="#000000" preserveAspectRatio="xMidYMid meet" height="366" width="1000" xmlns="http://www.w3.org/2000/svg" xmlns:xlink="http://www.w3.org/1999/xlink"><defs></defs><g id="tight-bounds" transform="matrix(1,0,0,1,0.2400000000000091,0.09869154253419765)"><svg viewBox="0 0 395.52 144.80261739424157" height="144.80261739424157" width="395.52"><g><svg viewBox="0 0 665.8526539295234 243.7732784382512" height="144.80261739424157" width="395.52"><g transform="matrix(1,0,0,1,270.3326539295234,67.02868260870468)"><svg viewBox="0 0 395.52 109.71591322084183" height="109.71591322084183" width="395.52"><g><svg viewBox="0 0 395.52 109.71591322084183" height="109.71591322084183" width="395.52"><g><svg viewBox="0 0 395.52 109.71591322084183" height="109.71591322084183" width="395.52"><g transform="matrix(1,0,0,1,0,0)"><svg width="395.52" viewBox="3.6100001335144043 -36.040000915527344 131.66000366210938 36.53000259399414" height="109.71591322084183" data-palette-color="#89939e"><path d="M3.61-35.55L11.62-35.55 21.88-8.3 32.1-35.55 40.09-35.55 40.09 0 33.94 0 33.94-11.72 34.55-27.39 24.05 0 19.63 0 9.16-27.37 9.77-11.72 9.77 0 3.61 0 3.61-35.55ZM65.96-9.16L65.96-9.16Q65.96-11.5 64.32-12.77 62.67-14.04 58.37-15.33 54.07-16.63 51.54-18.21L51.54-18.21Q46.68-21.26 46.68-26.17L46.68-26.17Q46.68-30.47 50.18-33.25 53.68-36.04 59.27-36.04L59.27-36.04Q62.99-36.04 65.89-34.67 68.8-33.3 70.46-30.77 72.12-28.25 72.12-25.17L72.12-25.17 65.96-25.17Q65.96-27.95 64.22-29.53 62.47-31.1 59.23-31.1L59.23-31.1Q56.2-31.1 54.53-29.81 52.85-28.52 52.85-26.2L52.85-26.2Q52.85-24.24 54.66-22.94 56.47-21.63 60.62-20.4 64.77-19.17 67.28-17.59 69.8-16.02 70.97-13.98 72.14-11.94 72.14-9.2L72.14-9.2Q72.14-4.76 68.74-2.14 65.33 0.49 59.49 0.49L59.49 0.49Q55.64 0.49 52.4-0.94 49.17-2.37 47.37-4.88 45.58-7.4 45.58-10.74L45.58-10.74 51.76-10.74Q51.76-7.71 53.76-6.05 55.76-4.39 59.49-4.39L59.49-4.39Q62.72-4.39 64.34-5.7 65.96-7.01 65.96-9.16ZM97.75 0L90.62-13.7 83.74-13.7 83.74 0 77.56 0 77.56-35.55 90.06-35.55Q96.21-35.55 99.56-32.79 102.9-30.03 102.9-24.8L102.9-24.8Q102.9-21.24 101.18-18.84 99.46-16.43 96.38-15.14L96.38-15.14 104.37-0.32 104.37 0 97.75 0ZM83.74-30.57L83.74-18.65 90.08-18.65Q93.21-18.65 94.97-20.23 96.72-21.8 96.72-24.54L96.72-24.54Q96.72-27.39 95.1-28.96 93.48-30.52 90.25-30.57L90.25-30.57 83.74-30.57ZM118.99 0L108.76 0 108.76-35.55 119.26-35.55Q123.97-35.55 127.62-33.45 131.27-31.35 133.27-27.49 135.27-23.63 135.27-18.65L135.27-18.65 135.27-16.87Q135.27-11.82 133.26-7.98 131.24-4.15 127.52-2.08 123.8 0 118.99 0L118.99 0ZM119.26-30.57L114.93-30.57 114.93-4.93 118.96-4.93Q123.82-4.93 126.42-7.97 129.02-11.01 129.07-16.7L129.07-16.7 129.07-18.68Q129.07-24.46 126.56-27.51 124.04-30.57 119.26-30.57L119.26-30.57Z" opacity="1" transform="matrix(1,0,0,1,0,0)" fill="#ffffff" class="undefined-text-0" data-fill-palette-color="primary" id="text-0"></path></svg></g></svg></g></svg></g></svg></g><g><svg viewBox="0 0 244.43135999999998 243.7732784382512" height="243.7732784382512" width="244.43135999999998"><g><svg xmlns="http://www.w3.org/2000/svg" viewBox="6 6.070000171661377 52 51.86000061035156" x="0" y="0" height="243.7732784382512" width="244.43135999999998" class="icon-icon-0" data-fill-palette-color="accent" id="icon-0"><g data-name="Layer 2" fill="#dedede" data-fill-palette-color="accent"><path d="M15.52 57.93H29.45V44H15.52Zm10-10.51a0.51 0.51 0 0 1 0.5-0.5 0.5 0.5 0 0 1 0.5 0.5v7.13a0.5 0.5 0 0 1-0.5 0.5 0.5 0.5 0 0 1-0.5-0.5Zm-7 0a0.5 0.5 0 0 1 0.5-0.5 0.51 0.51 0 0 1 0.5 0.5v7.13a0.5 0.5 0 0 1-0.5 0.5 0.5 0.5 0 0 1-0.5-0.5Z" fill="#ffffff" data-fill-palette-color="accent"></path><path d="M34.56 57.93H48.49V44H34.56Zm10-10.51a0.5 0.5 0 0 1 1 0v7.13a0.5 0.5 0 0 1-1 0Zm-7.06 0a0.51 0.51 0 0 1 0.5-0.5 0.5 0.5 0 0 1 0.5 0.5v7.13a0.5 0.5 0 0 1-0.5 0.5 0.5 0.5 0 0 1-0.5-0.5Z" fill="#ffffff" data-fill-palette-color="accent"></path><path d="M19.93 25H6V39H19.93Zm-10 10.55a0.51 0.51 0 0 1-0.5 0.5 0.5 0.5 0 0 1-0.5-0.5V28.46a0.5 0.5 0 0 1 0.5-0.5 0.5 0.5 0 0 1 0.5 0.5Zm7.06 0a0.51 0.51 0 0 1-0.5 0.5 0.5 0.5 0 0 1-0.5-0.5V28.46a0.5 0.5 0 0 1 0.5-0.5 0.5 0.5 0 0 1 0.5 0.5Z" fill="#ffffff" data-fill-palette-color="accent"></path><path d="M25 39H39V25H25Zm10-10.5a0.5 0.5 0 0 1 0.5-0.5 0.5 0.5 0 0 1 0.5 0.5v7.13a0.5 0.5 0 0 1-0.5 0.5 0.51 0.51 0 0 1-0.5-0.5Zm-7.06 0a0.5 0.5 0 0 1 0.5-0.5 0.5 0.5 0 0 1 0.5 0.5v7.13a0.5 0.5 0 0 1-0.5 0.5 0.51 0.51 0 0 1-0.5-0.5Z" fill="#ffffff" data-fill-palette-color="accent"></path><path d="M44.08 25V39H58V25ZM48 35.59a0.5 0.5 0 0 1-1 0V28.46a0.5 0.5 0 1 1 1 0Zm7.06 0a0.5 0.5 0 0 1-1 0V28.46a0.5 0.5 0 0 1 1 0Z" fill="#ffffff" data-fill-palette-color="accent"></path><path d="M29.45 6.07H15.52V20H29.45Zm-10 10.55a0.5 0.5 0 0 1-0.5 0.5 0.5 0.5 0 0 1-0.5-0.5V9.49A0.5 0.5 0 0 1 19 9a0.51 0.51 0 0 1 0.5 0.5Zm7 0a0.5 0.5 0 0 1-0.5 0.5 0.5 0.5 0 0 1-0.5-0.5V9.49A0.51 0.51 0 0 1 26 9a0.5 0.5 0 0 1 0.5 0.5Z" fill="#ffffff" data-fill-palette-color="accent"></path><path d="M48.49 6.07H34.56V20H48.49Zm-10 10.55a0.5 0.5 0 0 1-0.5 0.5 0.5 0.5 0 0 1-0.5-0.5V9.49A0.51 0.51 0 0 1 38 9a0.5 0.5 0 0 1 0.5 0.5Zm7.06 0a0.5 0.5 0 0 1-1 0V9.49a0.5 0.5 0 0 1 1 0Z" fill="#ffffff" data-fill-palette-color="accent"></path></g></svg></g></svg></g></svg></g></svg><rect width="395.52" height="144.80261739424157" fill="none" stroke="none" visibility="hidden"></rect></g></svg></g></svg>
